<svg xmlns="http://www.w3.org/2000/svg" xmlns:xlink="http://www.w3.org/1999/xlink" width="500" zoomAndPan="magnify" viewBox="0 0 375 374.999991" height="500" preserveAspectRatio="xMidYMid meet" version="1.0"><defs><g/><clipPath id="f9fe367f7b"><path d="M 148.449219 60 L 176 60 L 176 100 L 148.449219 100 Z M 148.449219 60 " clip-rule="nonzero"/></clipPath><clipPath id="a112af2eca"><path d="M 197 60 L 224.199219 60 L 224.199219 100 L 197 100 Z M 197 60 " clip-rule="nonzero"/></clipPath><clipPath id="7ae2378c31"><path d="M 173 50.457031 L 200 50.457031 L 200 109.707031 L 173 109.707031 Z M 173 50.457031 " clip-rule="nonzero"/></clipPath></defs><rect x="-37.5" width="450" fill="#ffffff" y="-37.499999" height="449.999989" fill-opacity="1"/><rect x="-37.5" width="450" fill="#ffffff" y="-37.499999" height="449.999989" fill-opacity="1"/><rect x="-37.5" width="450" fill="#ffffff" y="-37.499999" height="449.999989" fill-opacity="1"/><path fill="#03fa6e" d="M 172.347656 98.765625 C 171.929688 98.765625 171.519531 98.625 171.1875 98.359375 L 150.003906 81.566406 C 149.550781 81.207031 149.289062 80.664062 149.289062 80.082031 C 149.289062 79.5 149.550781 78.957031 150.003906 78.59375 L 171.1875 61.804688 C 171.519531 61.542969 171.929688 61.398438 172.347656 61.398438 C 172.925781 61.398438 173.46875 61.660156 173.820312 62.121094 C 174.132812 62.515625 174.273438 63.011719 174.210938 63.511719 C 174.152344 64.015625 173.902344 64.460938 173.507812 64.773438 L 154.203125 80.082031 L 173.507812 95.386719 C 173.902344 95.703125 174.152344 96.152344 174.210938 96.648438 C 174.273438 97.152344 174.132812 97.644531 173.820312 98.042969 C 173.46875 98.5 172.925781 98.765625 172.347656 98.765625 " fill-opacity="1" fill-rule="nonzero"/><g clip-path="url(#f9fe367f7b)"><path fill="#2a446b" d="M 172.347656 60.59375 C 171.75 60.59375 171.167969 60.796875 170.695312 61.171875 L 149.511719 77.964844 C 148.859375 78.480469 148.488281 79.25 148.488281 80.082031 C 148.488281 80.914062 148.863281 81.6875 149.511719 82.203125 L 170.695312 98.992188 C 171.164062 99.363281 171.75 99.570312 172.347656 99.570312 C 173.175781 99.570312 173.941406 99.195312 174.453125 98.539062 C 174.894531 97.976562 175.089844 97.269531 175.007812 96.554688 C 174.921875 95.839844 174.566406 95.199219 174.003906 94.757812 L 155.492188 80.082031 L 174.003906 65.410156 C 174.566406 64.960938 174.921875 64.324219 175.007812 63.609375 C 175.089844 62.894531 174.894531 62.1875 174.453125 61.621094 C 173.941406 60.96875 173.171875 60.59375 172.347656 60.59375 Z M 172.347656 62.203125 C 172.667969 62.203125 172.984375 62.347656 173.195312 62.617188 C 173.566406 63.089844 173.484375 63.773438 173.015625 64.144531 L 152.90625 80.082031 L 173.015625 96.023438 C 173.484375 96.390625 173.566406 97.074219 173.195312 97.546875 C 172.984375 97.820312 172.667969 97.960938 172.347656 97.960938 C 172.117188 97.960938 171.882812 97.886719 171.683594 97.730469 L 150.5 80.9375 C 150.238281 80.730469 150.085938 80.414062 150.085938 80.082031 C 150.085938 79.746094 150.238281 79.433594 150.5 79.230469 L 171.683594 62.4375 C 171.878906 62.277344 172.117188 62.203125 172.347656 62.203125 " fill-opacity="1" fill-rule="nonzero"/></g><path fill="#03fa6e" d="M 200.300781 98.765625 C 199.722656 98.765625 199.183594 98.5 198.824219 98.042969 C 198.183594 97.226562 198.324219 96.035156 199.140625 95.386719 L 218.449219 80.082031 L 199.140625 64.773438 C 198.324219 64.128906 198.183594 62.9375 198.824219 62.121094 C 199.183594 61.660156 199.722656 61.398438 200.300781 61.398438 C 200.71875 61.398438 201.128906 61.542969 201.460938 61.804688 L 222.644531 78.59375 C 223.097656 78.957031 223.359375 79.5 223.359375 80.082031 C 223.359375 80.664062 223.097656 81.207031 222.640625 81.566406 L 201.460938 98.359375 C 201.128906 98.625 200.71875 98.765625 200.300781 98.765625 " fill-opacity="1" fill-rule="nonzero"/><g clip-path="url(#a112af2eca)"><path fill="#2a446b" d="M 200.300781 60.59375 C 199.476562 60.59375 198.707031 60.96875 198.195312 61.621094 C 197.28125 62.789062 197.484375 64.488281 198.644531 65.410156 L 217.15625 80.082031 L 198.644531 94.757812 C 197.484375 95.675781 197.28125 97.375 198.195312 98.539062 C 198.707031 99.195312 199.476562 99.570312 200.300781 99.570312 C 200.898438 99.570312 201.480469 99.363281 201.953125 98.992188 L 223.136719 82.203125 C 223.785156 81.6875 224.15625 80.914062 224.15625 80.082031 C 224.15625 79.25 223.785156 78.480469 223.140625 77.964844 L 201.957031 61.171875 C 201.484375 60.796875 200.898438 60.59375 200.300781 60.59375 Z M 200.300781 62.203125 C 200.53125 62.203125 200.769531 62.277344 200.964844 62.4375 L 222.148438 79.230469 C 222.410156 79.433594 222.558594 79.746094 222.558594 80.082031 C 222.558594 80.414062 222.410156 80.730469 222.148438 80.9375 L 200.964844 97.730469 C 200.769531 97.886719 200.53125 97.960938 200.300781 97.960938 C 199.980469 97.960938 199.664062 97.820312 199.453125 97.546875 C 199.085938 97.074219 199.164062 96.390625 199.632812 96.023438 L 219.738281 80.082031 L 199.632812 64.144531 C 199.164062 63.773438 199.085938 63.089844 199.453125 62.617188 C 199.664062 62.347656 199.984375 62.203125 200.300781 62.203125 " fill-opacity="1" fill-rule="nonzero"/></g><path fill="#03fa6e" d="M 175.796875 108.898438 C 175.5625 108.898438 175.335938 108.855469 175.121094 108.769531 C 174.652344 108.585938 174.28125 108.234375 174.082031 107.773438 C 173.875 107.308594 173.867188 106.796875 174.046875 106.328125 L 194.734375 52.472656 C 195.015625 51.75 195.714844 51.265625 196.484375 51.265625 C 196.71875 51.265625 196.945312 51.3125 197.164062 51.394531 C 198.125 51.769531 198.609375 52.871094 198.234375 53.839844 L 177.546875 107.691406 C 177.269531 108.414062 176.5625 108.898438 175.796875 108.898438 " fill-opacity="1" fill-rule="nonzero"/><g clip-path="url(#7ae2378c31)"><path fill="#2a446b" d="M 196.484375 50.460938 C 195.386719 50.460938 194.382812 51.15625 193.992188 52.183594 L 173.300781 106.035156 C 173.046875 106.707031 173.0625 107.4375 173.347656 108.097656 C 173.640625 108.753906 174.164062 109.261719 174.832031 109.519531 C 175.140625 109.644531 175.464844 109.703125 175.796875 109.703125 C 176.894531 109.703125 177.898438 109.011719 178.292969 107.980469 L 198.980469 54.132812 C 199.511719 52.742188 198.828125 51.179688 197.449219 50.644531 C 197.140625 50.523438 196.816406 50.460938 196.484375 50.460938 Z M 196.484375 52.070312 C 196.613281 52.070312 196.746094 52.097656 196.875 52.144531 C 197.429688 52.359375 197.703125 52.988281 197.492188 53.546875 L 176.800781 107.398438 C 176.636719 107.832031 176.226562 108.09375 175.796875 108.09375 C 175.664062 108.09375 175.535156 108.070312 175.40625 108.019531 C 174.851562 107.804688 174.574219 107.171875 174.792969 106.617188 L 195.480469 52.765625 C 195.644531 52.335938 196.050781 52.070312 196.484375 52.070312 " fill-opacity="1" fill-rule="nonzero"/></g><g fill="#000000" fill-opacity="1"><g transform="translate(67.41332, 159.627923)"><g><path d="M 24.308594 -8.328125 L 15.300781 -42.210938 L 2.863281 -42.210938 L 2.863281 0 L 10.984375 0 L 10.984375 -35.238281 L 20.246094 0 L 28.316406 0 L 37.527344 -35.1875 L 37.527344 0 L 45.699219 0 L 45.699219 -42.210938 L 33.261719 -42.210938 Z M 24.308594 -8.328125 "/></g></g></g><g fill="#000000" fill-opacity="1"><g transform="translate(113.991291, 159.627923)"><g><path d="M 16.65625 0.832031 C 19.675781 0.832031 25.554688 0.15625 30.5 -0.730469 L 30.5 -29.875 L 22.277344 -29.875 L 22.277344 -6.765625 C 20.351562 -6.402344 18.476562 -6.246094 17.019531 -6.246094 C 13.117188 -6.246094 11.085938 -7.597656 11.085938 -11.398438 L 11.085938 -29.875 L 2.8125 -29.875 L 2.8125 -10.722656 C 2.8125 -1.769531 9.265625 0.832031 16.65625 0.832031 Z M 16.65625 0.832031 "/></g></g></g><g fill="#000000" fill-opacity="1"><g transform="translate(145.372746, 159.627923)"><g><path d="M 11.085938 0 L 11.085938 -42.210938 L 2.8125 -42.210938 L 2.8125 0 Z M 11.085938 0 "/></g></g></g><g fill="#000000" fill-opacity="1"><g transform="translate(157.290147, 159.627923)"><g><path d="M 25.660156 0 L 25.660156 -7.652344 L 19.882812 -7.652344 C 16.34375 -7.652344 14.730469 -9.003906 14.730469 -12.335938 L 14.730469 -22.277344 L 25.609375 -22.277344 L 25.609375 -29.875 L 14.730469 -29.875 L 14.730469 -39.039062 L 6.453125 -39.039062 L 6.453125 -29.875 L 1.195312 -29.875 L 1.195312 -22.277344 L 6.453125 -22.277344 L 6.453125 -9.734375 C 6.453125 -3.226562 9.058594 0 16.1875 0 Z M 25.660156 0 "/></g></g></g><g fill="#000000" fill-opacity="1"><g transform="translate(183.155046, 159.627923)"><g><path d="M 6.921875 -33.78125 C 9.210938 -33.78125 11.035156 -34.925781 11.035156 -37.425781 C 11.035156 -39.660156 9.367188 -41.015625 6.921875 -41.015625 C 4.527344 -41.015625 2.8125 -39.660156 2.8125 -37.425781 C 2.8125 -34.925781 4.683594 -33.78125 6.921875 -33.78125 Z M 11.085938 0 L 11.085938 -29.875 L 2.8125 -29.875 L 2.8125 0 Z M 11.085938 0 "/></g></g></g><g fill="#000000" fill-opacity="1"><g transform="translate(195.072453, 159.627923)"><g><path d="M 10.984375 0 L 10.984375 -15.25 L 21.964844 -15.25 C 32.53125 -15.25 36.902344 -21.546875 36.902344 -28.992188 L 36.902344 -29.042969 C 36.902344 -35.863281 33 -42.210938 21.964844 -42.210938 L 2.863281 -42.210938 L 2.863281 0 Z M 10.984375 -34.613281 L 21.132812 -34.613281 C 25.921875 -34.613281 28.574219 -32.6875 28.574219 -28.472656 L 28.574219 -28.417969 C 28.574219 -24.253906 25.867188 -22.433594 21.132812 -22.433594 L 10.984375 -22.433594 Z M 10.984375 -34.613281 "/></g></g></g><g fill="#000000" fill-opacity="1"><g transform="translate(231.814325, 159.627923)"><g><path d="M 11.085938 0 L 11.085938 -42.210938 L 2.8125 -42.210938 L 2.8125 0 Z M 11.085938 0 "/></g></g></g><g fill="#000000" fill-opacity="1"><g transform="translate(243.731721, 159.627923)"><g><path d="M 33.050781 -13.949219 C 33.050781 -24.621094 27.222656 -31.074219 17.644531 -31.074219 C 8.171875 -31.074219 2.082031 -24.515625 2.082031 -15.199219 L 2.082031 -15.148438 C 2.082031 -5.671875 8.589844 0.78125 18.632812 0.78125 C 24.464844 0.78125 28.574219 -1.039062 31.59375 -2.914062 L 28.003906 -9.316406 C 25.816406 -7.753906 22.640625 -6.453125 19 -6.453125 C 14.46875 -6.453125 11.503906 -9.367188 10.671875 -13.21875 L 33.050781 -13.21875 Z M 17.59375 -24.359375 C 21.601562 -24.359375 23.996094 -21.757812 24.621094 -18.320312 L 10.722656 -18.320312 C 11.503906 -21.757812 14 -24.359375 17.59375 -24.359375 Z M 17.59375 -24.359375 "/></g></g></g><g fill="#000000" fill-opacity="1"><g transform="translate(276.934668, 159.627923)"><g><path d="M 15.25 0.675781 C 24.152344 0.675781 28.574219 -2.550781 28.574219 -9.003906 C 28.574219 -13.742188 25.453125 -16.65625 18.738281 -18.53125 L 16.605469 -19.101562 C 13.011719 -20.144531 11.554688 -20.871094 11.554688 -22.382812 C 11.554688 -24.046875 13.324219 -24.621094 16.34375 -24.621094 C 18.894531 -24.621094 22.484375 -24.046875 25.140625 -22.640625 L 27.535156 -28.417969 C 24.464844 -30.03125 19.882812 -31.023438 15.355469 -31.023438 C 7.597656 -31.023438 3.226562 -27.636719 3.226562 -22.121094 C 3.226562 -17.175781 6.039062 -14.261719 12.285156 -12.597656 L 15.09375 -11.867188 C 19.464844 -10.671875 20.457031 -9.992188 20.457031 -8.378906 C 20.457031 -6.195312 18.0625 -5.726562 14.523438 -5.726562 C 11.503906 -5.726562 7.859375 -6.402344 4.371094 -7.910156 L 2.132812 -1.925781 C 6.402344 -0.15625 10.566406 0.675781 15.25 0.675781 Z M 15.25 0.675781 "/></g></g></g><g fill="#004aad" fill-opacity="1"><g transform="translate(69.076429, 90.464285)"><g><path d="M 7.925781 0 L 7.925781 -12.960938 L 21 -12.960938 L 21 -18.183594 L 7.925781 -18.183594 L 7.925781 -24.945312 L 22.316406 -24.945312 L 22.316406 -30.46875 L 2.066406 -30.46875 L 2.066406 0 Z M 7.925781 0 "/></g></g></g><g fill="#004aad" fill-opacity="1"><g transform="translate(91.238356, 90.464285)"><g><path d="M 4.996094 -24.382812 C 6.648438 -24.382812 7.964844 -25.207031 7.964844 -27.011719 C 7.964844 -28.625 6.761719 -29.601562 4.996094 -29.601562 C 3.269531 -29.601562 2.027344 -28.625 2.027344 -27.011719 C 2.027344 -25.207031 3.382812 -24.382812 4.996094 -24.382812 Z M 8 0 L 8 -21.5625 L 2.027344 -21.5625 L 2.027344 0 Z M 8 0 "/></g></g></g><g fill="#004aad" fill-opacity="1"><g transform="translate(99.839959, 90.464285)"><g><path d="M 19.574219 -16.867188 L 19.574219 -21.5625 L 1.914062 -21.5625 L 1.914062 -16.152344 L 12.359375 -16.152344 L 1.277344 -4.769531 L 1.277344 0 L 19.722656 0 L 19.722656 -5.449219 L 8.191406 -5.449219 Z M 19.574219 -16.867188 "/></g></g></g><g fill="#004aad" fill-opacity="1"><g transform="translate(119.485146, 90.464285)"><g><path d="M 19.574219 -16.867188 L 19.574219 -21.5625 L 1.914062 -21.5625 L 1.914062 -16.152344 L 12.359375 -16.152344 L 1.277344 -4.769531 L 1.277344 0 L 19.722656 0 L 19.722656 -5.449219 L 8.191406 -5.449219 Z M 19.574219 -16.867188 "/></g></g></g><g fill="#004aad" fill-opacity="1"><g transform="translate(226.822791, 90.645593)"><g><path d="M 14.503906 0 C 20.890625 0 25.535156 -2.304688 25.535156 -8.6875 L 25.535156 -8.839844 C 25.535156 -12.84375 23.117188 -15.527344 18.925781 -16.167969 C 22.210938 -17 24.25 -19.378906 24.25 -23.15625 L 24.25 -23.308594 C 24.25 -28.105469 21.609375 -30.636719 14.582031 -30.636719 L 2.078125 -30.636719 L 2.078125 0 Z M 7.933594 -25.160156 L 13.902344 -25.160156 C 16.773438 -25.160156 18.359375 -24.214844 18.359375 -21.609375 L 18.359375 -21.457031 C 18.359375 -19.078125 16.621094 -17.945312 13.636719 -17.945312 L 7.933594 -17.945312 Z M 7.933594 -13.449219 L 14.695312 -13.449219 C 17.753906 -13.449219 19.566406 -12.125 19.566406 -9.746094 L 19.566406 -9.558594 C 19.566406 -6.988281 17.945312 -5.515625 14.882812 -5.515625 L 7.933594 -5.515625 Z M 7.933594 -13.449219 "/></g></g></g><g fill="#004aad" fill-opacity="1"><g transform="translate(252.280184, 90.645593)"><g><path d="M 12.089844 0.605469 C 14.277344 0.605469 18.546875 0.113281 22.136719 -0.527344 L 22.136719 -21.683594 L 16.167969 -21.683594 L 16.167969 -4.910156 C 14.769531 -4.644531 13.410156 -4.53125 12.351562 -4.53125 C 9.519531 -4.53125 8.046875 -5.515625 8.046875 -8.273438 L 8.046875 -21.683594 L 2.039062 -21.683594 L 2.039062 -7.78125 C 2.039062 -1.285156 6.722656 0.605469 12.089844 0.605469 Z M 12.089844 0.605469 "/></g></g></g><g fill="#004aad" fill-opacity="1"><g transform="translate(275.05582, 90.645593)"><g><path d="M 19.679688 -16.960938 L 19.679688 -21.683594 L 1.925781 -21.683594 L 1.925781 -16.242188 L 12.429688 -16.242188 L 1.285156 -4.796875 L 1.285156 0 L 19.832031 0 L 19.832031 -5.476562 L 8.234375 -5.476562 Z M 19.679688 -16.960938 "/></g></g></g><g fill="#004aad" fill-opacity="1"><g transform="translate(294.809758, 90.645593)"><g><path d="M 19.679688 -16.960938 L 19.679688 -21.683594 L 1.925781 -21.683594 L 1.925781 -16.242188 L 12.429688 -16.242188 L 1.285156 -4.796875 L 1.285156 0 L 19.832031 0 L 19.832031 -5.476562 L 8.234375 -5.476562 Z M 19.679688 -16.960938 "/></g></g></g></svg>